<svg id="Layer_1" data-name="Layer 1" xmlns="http://www.w3.org/2000/svg" viewBox="0 0 1000 505.67"><defs><style>.cls-1{fill:#231f20;}</style></defs><title>Premium Poppers icon 1</title><path class="cls-1" d="M1000,444.7c0,105.54-83,191.67-187.22,196.72-.12.45-.2.66-.2.66l-.21.2-5.5,5.63V747l-5.71,5.83H539.47L533.64,747V253l5.83-5.83H803a196.16,196.16,0,0,1,73.24,14.06v.58A197,197,0,0,1,1000,444.7Z" transform="translate(0 -247.17)"/><path class="cls-1" d="M468.4,253V747l-5.79,5.83H205L199.25,747V647.62l-5.46-5.5-.33-.33a.63.63,0,0,0,0-.16c-.41,0-8.16-.25-11.62-.49-1.72-.12-3.43-.29-5.14-.45a197.29,197.29,0,0,1-40.37-8.52,194.72,194.72,0,0,1-43.35-20.23A197.27,197.27,0,0,1,28.63,547a2.26,2.26,0,0,0-.13-.2A197.23,197.23,0,0,1,41.31,323.91a197.89,197.89,0,0,1,88.12-64.31q6.73-2.44,13.71-4.4c.81-.25,1.59-.45,2.4-.69a191.47,191.47,0,0,1,52.89-7.34H462.61Z" transform="translate(0 -247.17)"/></svg>