<?xml version="1.0" encoding="UTF-8" standalone="no"?>
<!-- Created with Inkscape (http://www.inkscape.org/) -->

<svg
   xmlns:dc="http://purl.org/dc/elements/1.1/"
   xmlns:cc="http://creativecommons.org/ns#"
   xmlns:rdf="http://www.w3.org/1999/02/22-rdf-syntax-ns#"
   xmlns:svg="http://www.w3.org/2000/svg"
   xmlns="http://www.w3.org/2000/svg"
   xmlns:sodipodi="http://sodipodi.sourceforge.net/DTD/sodipodi-0.dtd"
   xmlns:inkscape="http://www.inkscape.org/namespaces/inkscape"
   width="500"
   height="300"
   viewBox="0 0 132.29167 79.375"
   version="1.1"
   id="svg8"
   inkscape:version="0.92.4 (5da689c313, 2019-01-14)"
   sodipodi:docname="HackSMUIII SimpleIsometric - Website.svg"
   inkscape:export-filename="C:\Users\mplen\Documents\Michael\Graphic Designs\HackSMU - Final\Option4\HackSMU Logo 4 - Website.png"
   inkscape:export-xdpi="96"
   inkscape:export-ydpi="96">
  <defs
     id="defs2" />
  <sodipodi:namedview
     id="base"
     pagecolor="#00034b"
     bordercolor="#666666"
     borderopacity="1.0"
     inkscape:pageopacity="1"
     inkscape:pageshadow="2"
     inkscape:zoom="1"
     inkscape:cx="284.22855"
     inkscape:cy="128.07322"
     inkscape:document-units="mm"
     inkscape:current-layer="layer1"
     showgrid="true"
     inkscape:window-width="2400"
     inkscape:window-height="1271"
     inkscape:window-x="2391"
     inkscape:window-y="-9"
     inkscape:window-maximized="1"
     units="px" />
  <metadata
     id="metadata5">
    <rdf:RDF>
      <cc:Work
         rdf:about="">
        <dc:format>image/svg+xml</dc:format>
        <dc:type
           rdf:resource="http://purl.org/dc/dcmitype/StillImage" />
        <dc:title></dc:title>
      </cc:Work>
    </rdf:RDF>
  </metadata>
  <g
     inkscape:label="Layer 1"
     inkscape:groupmode="layer"
     id="layer1"
     transform="translate(0,-217.625)">
    <g
       id="g900"
       transform="matrix(2.0289318,0,0,2.0289318,-0.95685901,-305.01862)">
      <path
         inkscape:connector-curvature="0"
         id="path5022"
         d="m 37.79224,277.20831 c -3.403802,-1.96755 -6.284157,-3.63147 -6.400786,-3.69759 l -0.212055,-0.12023 1.232304,-0.71161 1.232308,-0.71162 0.225403,0.12701 c 0.123973,0.0699 2.455162,1.41446 5.180422,2.98801 l 4.955018,2.86099 1.347073,-0.77789 c 1.06785,-0.61665 1.334889,-0.78668 1.288288,-0.82028 -0.03233,-0.0233 -2.355635,-1.36812 -5.162901,-2.98846 -2.807263,-1.62034 -5.091796,-2.95789 -5.076741,-2.97234 0.07487,-0.0718 7.544415,-4.3588 7.598247,-4.36083 0.08681,-0.003 12.815528,7.34642 12.782095,7.38051 -0.01488,0.0152 -0.56616,0.3388 -1.225091,0.71921 l -1.198061,0.69165 -4.965678,-2.8668 c -2.731123,-1.57675 -5.061376,-2.92081 -5.178332,-2.98682 l -0.212649,-0.12001 -1.286419,0.74154 c -0.707532,0.40784 -1.312694,0.76094 -1.344806,0.78467 -0.04632,0.0342 0.997185,0.65223 5.047351,2.98922 2.808159,1.62034 5.132331,2.965 5.164834,2.98812 0.04662,0.0332 -0.746878,0.50698 -3.758317,2.24416 -2.099575,1.21116 -3.823116,2.2009 -3.830091,2.19943 -0.007,-0.002 -2.797616,-1.61249 -6.201416,-3.58004 z"
         style="opacity:1;fill:#ffffff;fill-opacity:1;stroke:none;stroke-width:0;stroke-linecap:round;stroke-linejoin:round;stroke-miterlimit:4;stroke-dasharray:none;stroke-opacity:0.91566264;paint-order:stroke fill markers" />
      <path
         inkscape:connector-curvature="0"
         id="path4699-3"
         d="m 26.370136,264.24138 -6.686885,3.86067 4.012131,2.31641 1.337378,-0.77213 -2.674755,-1.54428 4.012131,-2.3164 2.674754,1.54427 1.337376,-0.77213 -4.01213,-2.31641"
         style="fill:none;stroke:none;stroke-width:0.04085881px;stroke-linecap:butt;stroke-linejoin:miter;stroke-opacity:1" />
      <path
         inkscape:connector-curvature="0"
         id="path4703-4"
         d="m 25.03276,271.19059 6.686884,-3.86067 1.337376,0.77213 -2.674754,1.54428 h 2.674754 l 1.337378,-0.77214 1.337379,0.77214 -1.337379,0.77213 h -2.674754 l -1.337378,0.77213 v 1.54427 l -1.337376,0.77214 -1.337375,-0.77214 1.337375,-0.77213 v -1.54427 l -2.674754,1.54427 -1.337376,-0.77214"
         style="fill:none;stroke:none;stroke-width:0.04085881px;stroke-linecap:butt;stroke-linejoin:miter;stroke-opacity:1" />
      <path
         inkscape:connector-curvature="0"
         id="path4856-3"
         d="m 21.719333,269.24487 c -1.075406,-0.62043 -1.955658,-1.13367 -1.956116,-1.14054 -4.69e-4,-0.007 1.484367,-0.86993 3.29961,-1.91789 2.641918,-1.52522 3.308228,-1.90181 3.339455,-1.88744 0.09144,0.0421 3.900344,2.2459 3.900979,2.25709 2.61e-4,0.007 -0.268205,0.16707 -0.596863,0.3562 -0.328658,0.18913 -0.611913,0.35249 -0.629458,0.36302 -0.02417,0.0145 -0.354194,-0.16698 -1.362906,-0.74947 -0.732055,-0.42273 -1.33657,-0.76861 -1.343365,-0.76861 -0.02325,0 -4.05461,2.33341 -4.054005,2.34651 3.4e-4,0.007 0.597806,0.35715 1.327719,0.77768 0.729913,0.42053 1.324902,0.76631 1.3222,0.7684 -0.03877,0.03 -1.260395,0.72426 -1.273592,0.72377 -0.01011,-2.6e-4 -0.898253,-0.5083 -1.973658,-1.12872 z"
         style="opacity:1;fill:#ffffff;fill-opacity:1;stroke:none;stroke-width:0.16343524;stroke-linecap:round;stroke-linejoin:round;stroke-miterlimit:4;stroke-dasharray:none;stroke-opacity:0.91566264;paint-order:stroke fill markers" />
      <path
         inkscape:connector-curvature="0"
         id="path4858-6"
         d="m 28.433173,273.11728 c -0.336262,-0.19496 -0.622662,-0.36123 -0.636441,-0.36948 -0.01532,-0.009 0.228885,-0.16136 0.628205,-0.39151 l 0.653256,-0.37651 v -0.80275 c 0,-0.44152 -0.004,-0.80276 -0.009,-0.80276 -0.0049,0 -0.608721,0.34628 -1.341734,0.76951 -0.73301,0.42323 -1.343558,0.76951 -1.35677,0.76951 -0.02912,0 -1.255817,-0.70591 -1.255817,-0.72266 0,-0.007 1.486131,-0.86987 3.302514,-1.91859 2.550408,-1.47252 3.309938,-1.9023 3.3351,-1.88719 0.01793,0.0108 0.301489,0.17432 0.630147,0.36345 0.328658,0.18913 0.597142,0.34942 0.596631,0.3562 -5.22e-4,0.007 -0.598356,0.35611 -1.32854,0.77629 -0.730186,0.42018 -1.332467,0.77182 -1.338404,0.78143 -0.0059,0.01 0.610188,0.0174 1.369165,0.0174 h 1.379955 l 0.666484,-0.385 0.666481,-0.38501 0.615697,0.35544 c 0.338635,0.1955 0.623158,0.36288 0.632276,0.37197 0.0091,0.009 -0.272683,0.18327 -0.626229,0.38707 l -0.642812,0.37056 h -1.336796 -1.336794 l -0.672366,0.38795 -0.672366,0.38795 -0.0102,0.77811 -0.0102,0.7781 -0.645017,0.37248 -0.645019,0.37247 z"
         style="opacity:1;fill:#ffffff;fill-opacity:1;stroke:none;stroke-width:0.16343524;stroke-linecap:round;stroke-linejoin:round;stroke-miterlimit:4;stroke-dasharray:none;stroke-opacity:0.91566264;paint-order:stroke fill markers" />
      <path
         inkscape:connector-curvature="0"
         id="path4693-0"
         d="m 8.9842351,261.92497 6.6868849,-3.86067 1.337377,0.77213 -2.674754,1.54428 1.337377,0.77213 2.674755,-1.54427 1.337376,0.77214 -6.686885,3.86067 -1.337377,-0.77213 2.674754,-1.54428 -1.337377,-0.77213 -2.674754,1.54427 -1.3373769,-0.77214"
         style="fill:none;stroke:none;stroke-width:0.04085881px;stroke-linecap:butt;stroke-linejoin:miter;stroke-opacity:1" />
      <path
         inkscape:connector-curvature="0"
         id="path4695-4"
         d="m 14.333743,265.01351 6.686885,-3.86067 4.012132,2.31641 -6.686885,3.86067 -1.337378,-0.77213 2.674754,-1.54428 -1.337376,-0.77213 -2.674755,1.54427 -1.337377,-0.77214"
         style="fill:none;stroke:none;stroke-width:0.04085881px;stroke-linecap:butt;stroke-linejoin:miter;stroke-opacity:1" />
      <path
         inkscape:connector-curvature="0"
         id="path4697-9"
         d="m 21.020628,262.69711 -1.337377,0.77214 1.337377,0.77213 1.337377,-0.77213 z"
         style="fill:none;stroke:none;stroke-width:0.04085881px;stroke-linecap:butt;stroke-linejoin:miter;stroke-opacity:1" />
      <path
         inkscape:connector-curvature="0"
         id="path4852-3"
         d="m 12.362235,263.84144 c -0.34529,-0.19915 -0.627789,-0.36669 -0.627774,-0.3723 1.4e-5,-0.006 0.597376,-0.35452 1.32747,-0.77534 0.730094,-0.42081 1.320566,-0.77126 1.31216,-0.77876 -0.0084,-0.008 -0.321668,-0.19001 -0.696137,-0.40557 l -0.680852,-0.39192 -1.319638,0.7621 c -0.725801,0.41915 -1.330896,0.76489 -1.344655,0.76829 -0.03599,0.009 -1.2804012,-0.71435 -1.2609912,-0.73291 0.00891,-0.009 1.4687332,-0.85369 3.2440492,-1.87816 1.775315,-1.02446 3.255932,-1.87986 3.290261,-1.90087 l 0.06241,-0.0382 0.62197,0.35886 c 0.342083,0.19737 0.62821,0.36479 0.635838,0.37204 0.0076,0.007 -0.583038,0.3574 -1.31259,0.77811 -0.729551,0.42071 -1.326146,0.77006 -1.325765,0.77632 0.0012,0.0203 1.355609,0.78775 1.387891,0.78645 0.02331,-10e-4 1.557746,-0.87728 2.617347,-1.4948 0.05153,-0.03 0.06867,-0.0217 0.690785,0.33736 0.35087,0.20249 0.630469,0.37265 0.621331,0.37814 -0.09658,0.058 -6.607544,3.81419 -6.610844,3.81379 -0.0025,-2.6e-4 -0.28698,-0.16347 -0.632271,-0.36262 z"
         style="opacity:1;fill:#ffffff;fill-opacity:1;stroke:none;stroke-width:0.16343524;stroke-linecap:round;stroke-linejoin:round;stroke-miterlimit:4;stroke-dasharray:none;stroke-opacity:0.91566264;paint-order:stroke fill markers" />
      <path
         inkscape:connector-curvature="0"
         id="path4854-1"
         d="m 17.70923,266.92963 c -0.337086,-0.19577 -0.614795,-0.36268 -0.617132,-0.37091 -0.0023,-0.008 0.587928,-0.35511 1.311701,-0.77085 0.723773,-0.41573 1.313334,-0.76493 1.310135,-0.77599 -0.0032,-0.0111 -0.312222,-0.19677 -0.686719,-0.41269 -0.503038,-0.29003 -0.689401,-0.38792 -0.713433,-0.37473 -0.01789,0.01 -0.619791,0.35714 -1.337555,0.77181 l -1.305025,0.75396 -0.637727,-0.3685 -0.637726,-0.3685 1.074502,-0.6203 c 0.590976,-0.34117 2.078271,-1.19984 3.305099,-1.90816 1.226828,-0.70832 2.238084,-1.28741 2.247235,-1.28686 0.02555,0.002 3.928868,2.25808 3.928868,2.27132 0,0.015 -6.591464,3.82083 -6.613046,3.81827 -0.009,-0.001 -0.292092,-0.1621 -0.629177,-0.35787 z m 4.024208,-3.06393 c 0.365387,-0.21108 0.66434,-0.38943 0.66434,-0.39633 0,-0.0128 -1.288805,-0.76292 -1.35316,-0.78755 -0.02445,-0.009 -0.248016,0.1091 -0.720137,0.3816 -0.37657,0.21735 -0.684673,0.39991 -0.684673,0.40568 0,0.0256 1.36198,0.79628 1.393923,0.78873 0.01945,-0.005 0.33432,-0.18105 0.699707,-0.39213 z"
         style="opacity:1;fill:#ffffff;fill-opacity:1;stroke:none;stroke-width:0.16343524;stroke-linecap:round;stroke-linejoin:round;stroke-miterlimit:4;stroke-dasharray:none;stroke-opacity:0.91566264;paint-order:stroke fill markers" />
      <g
         transform="matrix(0.26096816,0,0,0.26096816,0.00997049,219.42628)"
         id="g8586">
        <g
           id="g8314"
           transform="translate(4.1951312e-4)"
           style="fill:#ffffff">
          <path
             inkscape:connector-curvature="0"
             id="path5024"
             d="m 169.96629,271.72478 0.0384,-22.68001 4.54591,-2.63132 c 2.50024,-1.44723 4.59706,-2.6329 4.65955,-2.63482 0.0625,-0.002 0.11365,7.66773 0.11365,17.04367 0,10.00807 0.0564,17.04717 0.13647,17.04717 0.075,0 6.84278,-3.87227 15.03939,-8.60504 l 14.90292,-8.60505 0.0758,-22.94432 0.0758,-22.94431 4.54591,-2.63481 c 2.50026,-1.44914 4.63135,-2.66993 4.73572,-2.71287 0.15175,-0.0624 0.18214,5.61082 0.15153,28.28716 l -0.0383,28.36522 -24.32063,14.04463 c -13.37635,7.72455 -24.40608,14.09865 -24.51053,14.16467 -0.15194,0.096 -0.18223,-4.41418 -0.15153,-22.55997 z"
             style="opacity:1;fill:#ffffff;fill-opacity:1;stroke:#000000;stroke-width:0;stroke-linecap:round;stroke-linejoin:round;stroke-miterlimit:4;stroke-dasharray:none;stroke-opacity:0.91566264;paint-order:stroke fill markers" />
        </g>
        <path
           style="opacity:1;fill:#ffffff;fill-opacity:1;stroke:none;stroke-width:0;stroke-linecap:round;stroke-linejoin:round;stroke-miterlimit:4;stroke-dasharray:none;stroke-opacity:0.91566264;paint-order:stroke fill markers"
           d="m 169.93,247.79276 6.4e-4,-1.73815 2.5885,-1.49556 c 1.42369,-0.82256 3.5293,-2.03896 4.67916,-2.70311 l 2.09065,-1.20755 0.0128,1.72835 c 0.01,1.34316 -9.6e-4,1.74092 -0.0486,1.78475 -0.0678,0.0622 -9.25849,5.36943 -9.29851,5.36943 -0.0137,0 -0.0247,-0.78217 -0.0245,-1.73816 z"
           id="path5030"
           inkscape:connector-curvature="0" />
        <path
           style="opacity:1;fill:#ffffff;fill-opacity:1;stroke:none;stroke-width:0;stroke-linecap:round;stroke-linejoin:round;stroke-miterlimit:4;stroke-dasharray:none;stroke-opacity:0.91566264;paint-order:stroke fill markers"
           d="m 169.93,244.65325 6.4e-4,-1.73815 2.5885,-1.49556 c 1.42369,-0.82256 3.5293,-2.03896 4.67916,-2.70311 l 2.09065,-1.20755 0.0128,1.72835 c 0.01,1.34316 -9.5e-4,1.74092 -0.0486,1.78475 -0.0678,0.0622 -9.25849,5.36943 -9.29851,5.36943 -0.0137,0 -0.0247,-0.78217 -0.0245,-1.73816 z"
           id="path5030-3"
           inkscape:connector-curvature="0" />
        <path
           style="opacity:1;fill:#ffffff;fill-opacity:1;stroke:none;stroke-width:0;stroke-linecap:round;stroke-linejoin:round;stroke-miterlimit:4;stroke-dasharray:none;stroke-opacity:0.91566264;paint-order:stroke fill markers"
           d="m 169.93,239.3781 6.4e-4,-1.73815 2.5885,-1.49556 c 1.42369,-0.82256 3.5293,-2.03896 4.67916,-2.70311 l 2.09065,-1.20755 0.0128,1.72835 c 0.01,1.34316 -9.5e-4,1.74092 -0.0486,1.78475 -0.0678,0.0622 -9.25849,5.36943 -9.29851,5.36943 -0.0137,0 -0.0247,-0.78217 -0.0245,-1.73816 z"
           id="path5030-3-1"
           inkscape:connector-curvature="0" />
        <path
           style="opacity:1;fill:#ffffff;fill-opacity:1;stroke:none;stroke-width:0;stroke-linecap:round;stroke-linejoin:round;stroke-miterlimit:4;stroke-dasharray:none;stroke-opacity:0.91566264;paint-order:stroke fill markers"
           d="m 169.93,242.0074 6.4e-4,-1.73815 2.5885,-1.49556 c 1.42369,-0.82256 3.5293,-2.03896 4.67916,-2.70311 l 2.09065,-1.20755 0.0128,1.72835 c 0.01,1.34316 -9.5e-4,1.74092 -0.0486,1.78475 -0.0678,0.0622 -9.25849,5.36943 -9.29851,5.36943 -0.0137,0 -0.0247,-0.78217 -0.0245,-1.73816 z"
           id="path5030-3-4"
           inkscape:connector-curvature="0" />
      </g>
      <g
         transform="matrix(0.26096816,0,0,0.26096816,-0.54241209,219.42628)"
         id="g8602">
        <path
           style="opacity:1;fill:#ffffff;fill-opacity:1;stroke:#000000;stroke-width:0;stroke-linecap:round;stroke-linejoin:round;stroke-miterlimit:4;stroke-dasharray:none;stroke-opacity:0.91566264;paint-order:stroke fill markers"
           d="m 144.73965,280.17738 -4.65706,-2.68673 -0.0404,-22.93662 -0.0404,-22.93662 -5.07627,-2.93083 -5.07627,-2.93083 -0.0758,22.86522 -0.0758,22.86521 -4.73533,-2.73494 -4.73532,-2.73493 v -28.3355 c 0,-22.60728 0.0383,-28.32037 0.18941,-28.26067 0.2935,0.11594 48.81555,28.1453 48.94626,28.27441 0.0636,0.0628 0.0977,2.53981 0.0758,5.50448 l -0.0398,5.3903 -9.69794,-5.60522 c -5.33387,-3.08288 -9.78318,-5.63942 -9.88736,-5.68122 -0.15103,-0.0606 -0.18941,4.54882 -0.18941,22.74555 0,12.55185 -0.0512,22.82021 -0.11365,22.8186 -0.0625,-0.002 -2.20933,-1.21196 -4.77072,-2.68966 z"
           id="path5026"
           inkscape:connector-curvature="0" />
        <path
           style="opacity:1;fill:#ffffff;fill-opacity:1;stroke:#000000;stroke-width:0;stroke-linecap:round;stroke-linejoin:round;stroke-miterlimit:4;stroke-dasharray:none;stroke-opacity:0.91566264;paint-order:stroke fill markers"
           d="m 164.62547,291.66696 -4.62167,-2.69222 -0.0384,-22.66627 -0.0384,-22.66626 2.69016,1.55456 c 1.47959,0.85501 3.62722,2.09527 4.77252,2.75613 l 2.08236,1.20156 0.001,22.61592 c 6e-4,12.43875 -0.05,22.60981 -0.11246,22.60236 -0.0625,-0.007 -2.1934,-1.22505 -4.73533,-2.70578 z"
           id="path5028"
           inkscape:connector-curvature="0" />
        <path
           style="opacity:1;fill:#ffffff;fill-opacity:1;stroke:none;stroke-width:0;stroke-linecap:round;stroke-linejoin:round;stroke-miterlimit:4;stroke-dasharray:none;stroke-opacity:0.91566264;paint-order:stroke fill markers"
           d="m 169.47143,247.50708 -6.6e-4,-1.64738 -2.63541,-1.41747 c -1.44948,-0.7796 -3.59325,-1.93248 -4.76395,-2.56195 l -2.12854,-1.14449 -0.013,1.6381 c -0.0102,1.27302 9.7e-4,1.65 0.0495,1.69155 0.069,0.059 9.42628,5.08903 9.46702,5.08903 0.014,0 0.0252,-0.74132 0.025,-1.64739 z"
           id="path5030-3-9-1"
           inkscape:connector-curvature="0" />
        <path
           style="opacity:1;fill:#ffffff;fill-opacity:1;stroke:none;stroke-width:0;stroke-linecap:round;stroke-linejoin:round;stroke-miterlimit:4;stroke-dasharray:none;stroke-opacity:0.91566264;paint-order:stroke fill markers"
           d="m 167.3205,240.28419 -6.6e-4,-1.64738 -2.63541,-1.41747 c -1.44948,-0.7796 -3.59325,-1.93248 -4.76395,-2.56195 l -2.12854,-1.14449 -0.013,1.6381 c -0.0102,1.27302 9.7e-4,1.65 0.0495,1.69155 0.069,0.059 9.42628,5.08903 9.46702,5.08903 0.014,0 0.0252,-0.74132 0.025,-1.64739 z"
           id="path5030-3-9-4"
           inkscape:connector-curvature="0" />
      </g>
    </g>
  </g>
</svg>
