<?xml version="1.0" encoding="UTF-8" standalone="no"?>
<!-- Created with Inkscape (http://www.inkscape.org/) -->

<svg
   xmlns:dc="http://purl.org/dc/elements/1.1/"
   xmlns:cc="http://creativecommons.org/ns#"
   xmlns:rdf="http://www.w3.org/1999/02/22-rdf-syntax-ns#"
   xmlns:svg="http://www.w3.org/2000/svg"
   xmlns="http://www.w3.org/2000/svg"
   xmlns:sodipodi="http://sodipodi.sourceforge.net/DTD/sodipodi-0.dtd"
   xmlns:inkscape="http://www.inkscape.org/namespaces/inkscape"
   width="110"
   height="110"
   viewBox="0 0 29.104168 29.104166"
   version="1.1"
   id="svg8"
   inkscape:version="0.92.4 (5da689c313, 2019-01-14)"
   sodipodi:docname="HackSMUIII SimpleIsometric - Icon.svg"
   inkscape:export-filename="C:\Users\mplen\Pictures\4 - HackSMUIII Isometric.png"
   inkscape:export-xdpi="96"
   inkscape:export-ydpi="96">
  <defs
     id="defs2">
    <inkscape:perspective
       sodipodi:type="inkscape:persp3d"
       inkscape:vp_x="0.41341145 : 280.58496 : 1"
       inkscape:vp_y="0 : 999.99994 : 0"
       inkscape:vp_z="140.96029 : 276.45084 : 1"
       inkscape:persp3d-origin="103.34636 : 84.117183 : 1"
       id="perspective4591" />
  </defs>
  <sodipodi:namedview
     id="base"
     pagecolor="#3c3c3c"
     bordercolor="#666666"
     borderopacity="1.0"
     inkscape:pageopacity="0"
     inkscape:pageshadow="2"
     inkscape:zoom="5.6568544"
     inkscape:cx="34.485579"
     inkscape:cy="64.535554"
     inkscape:document-units="mm"
     inkscape:current-layer="g5876"
     showgrid="true"
     inkscape:window-width="1920"
     inkscape:window-height="1001"
     inkscape:window-x="-9"
     inkscape:window-y="-9"
     inkscape:window-maximized="1"
     units="px">
    <inkscape:grid
       type="xygrid"
       id="grid884"
       spacingx="0.13229167"
       spacingy="0.13229167" />
  </sodipodi:namedview>
  <metadata
     id="metadata5">
    <rdf:RDF>
      <cc:Work
         rdf:about="">
        <dc:format>image/svg+xml</dc:format>
        <dc:type
           rdf:resource="http://purl.org/dc/dcmitype/StillImage" />
        <dc:title></dc:title>
      </cc:Work>
    </rdf:RDF>
  </metadata>
  <g
     inkscape:label="Layer 1"
     inkscape:groupmode="layer"
     id="layer1"
     transform="translate(0,-267.89584)">
    <g
       id="g5876"
       transform="matrix(1.1454266,0,0,1.1454266,-127.95197,126.42985)">
      <rect
         style="opacity:1;fill:#00034b;fill-opacity:1;stroke:#ffffff;stroke-width:0.8337505;stroke-linecap:round;stroke-linejoin:round;stroke-miterlimit:4;stroke-dasharray:none;stroke-opacity:1;paint-order:stroke fill markers"
         id="rect886"
         width="24.254074"
         height="24.254074"
         x="112.2843"
         y="124.08255" />
      <g
         transform="translate(-47.454893,-17.59239)"
         id="g5588" />
      <g
         id="g882"
         transform="matrix(0.87071094,0,0,0.87071094,15.094015,17.250348)">
        <path
           inkscape:connector-curvature="0"
           id="path5022"
           d="m 120.13225,133.19423 c -2.97165,-1.71774 -5.48631,-3.17041 -5.58813,-3.22813 l -0.18513,-0.10497 1.07585,-0.62126 1.07585,-0.62127 0.19678,0.11088 c 0.10824,0.061 2.14345,1.23488 4.5227,2.60865 l 4.32592,2.49775 1.17604,-0.67913 c 0.93228,-0.53836 1.16541,-0.6868 1.12473,-0.71613 -0.0282,-0.0204 -2.05656,-1.19442 -4.50741,-2.60904 -2.45084,-1.41462 -4.44532,-2.58235 -4.43218,-2.59496 0.0654,-0.0627 6.58655,-3.8054 6.63355,-3.80717 0.0758,-0.003 11.18843,6.4137 11.15925,6.44346 -0.013,0.0133 -0.49428,0.29578 -1.06955,0.6279 l -1.04596,0.60383 -4.33522,-2.50282 c -2.38437,-1.37656 -4.41877,-2.54998 -4.52087,-2.60761 l -0.18565,-0.10477 -1.1231,0.64739 c -0.6177,0.35606 -1.14603,0.66433 -1.17406,0.68505 -0.0404,0.0299 0.87058,0.56942 4.40652,2.6097 2.45163,1.41462 4.48072,2.58855 4.50909,2.60874 0.0407,0.029 -0.65205,0.44261 -3.28115,1.95923 -1.833,1.05739 -3.33772,1.92147 -3.34381,1.92019 -0.006,-0.002 -2.44242,-1.40777 -5.41406,-3.12551 z"
           style="opacity:1;fill:#ffffff;fill-opacity:1;stroke:none;stroke-width:0;stroke-linecap:round;stroke-linejoin:round;stroke-miterlimit:4;stroke-dasharray:none;stroke-opacity:0.91566264;paint-order:stroke fill markers" />
        <g
           transform="matrix(0.2278349,0,0,0.2278349,87.146923,82.74837)"
           id="g8586">
          <g
             id="g8314"
             transform="translate(4.1951312e-4)"
             style="fill:#ffffff">
            <path
               inkscape:connector-curvature="0"
               id="path5024"
               d="m 169.96629,271.72478 0.0384,-22.68001 4.54591,-2.63132 c 2.50024,-1.44723 4.59706,-2.6329 4.65955,-2.63482 0.0625,-0.002 0.11365,7.66773 0.11365,17.04367 0,10.00807 0.0564,17.04717 0.13647,17.04717 0.075,0 6.84278,-3.87227 15.03939,-8.60504 l 14.90292,-8.60505 0.0758,-22.94432 0.0758,-22.94431 4.54591,-2.63481 c 2.50026,-1.44914 4.63135,-2.66993 4.73572,-2.71287 0.15175,-0.0624 0.18214,5.61082 0.15153,28.28716 l -0.0383,28.36522 -24.32063,14.04463 c -13.37635,7.72455 -24.40608,14.09865 -24.51053,14.16467 -0.15194,0.096 -0.18223,-4.41418 -0.15153,-22.55997 z"
               style="opacity:1;fill:#ffffff;fill-opacity:1;stroke:#000000;stroke-width:0;stroke-linecap:round;stroke-linejoin:round;stroke-miterlimit:4;stroke-dasharray:none;stroke-opacity:0.91566264;paint-order:stroke fill markers" />
          </g>
          <path
             style="opacity:1;fill:#ffffff;fill-opacity:1;stroke:none;stroke-width:0;stroke-linecap:round;stroke-linejoin:round;stroke-miterlimit:4;stroke-dasharray:none;stroke-opacity:0.91566264;paint-order:stroke fill markers"
             d="m 169.93,247.79276 6.4e-4,-1.73815 2.5885,-1.49556 c 1.42369,-0.82256 3.5293,-2.03896 4.67916,-2.70311 l 2.09065,-1.20755 0.0128,1.72835 c 0.01,1.34316 -9.6e-4,1.74092 -0.0486,1.78475 -0.0678,0.0622 -9.25849,5.36943 -9.29851,5.36943 -0.0137,0 -0.0247,-0.78217 -0.0245,-1.73816 z"
             id="path5030"
             inkscape:connector-curvature="0" />
          <path
             style="opacity:1;fill:#ffffff;fill-opacity:1;stroke:none;stroke-width:0;stroke-linecap:round;stroke-linejoin:round;stroke-miterlimit:4;stroke-dasharray:none;stroke-opacity:0.91566264;paint-order:stroke fill markers"
             d="m 169.93,244.65325 6.4e-4,-1.73815 2.5885,-1.49556 c 1.42369,-0.82256 3.5293,-2.03896 4.67916,-2.70311 l 2.09065,-1.20755 0.0128,1.72835 c 0.01,1.34316 -9.5e-4,1.74092 -0.0486,1.78475 -0.0678,0.0622 -9.25849,5.36943 -9.29851,5.36943 -0.0137,0 -0.0247,-0.78217 -0.0245,-1.73816 z"
             id="path5030-3"
             inkscape:connector-curvature="0" />
          <path
             style="opacity:1;fill:#ffffff;fill-opacity:1;stroke:none;stroke-width:0;stroke-linecap:round;stroke-linejoin:round;stroke-miterlimit:4;stroke-dasharray:none;stroke-opacity:0.91566264;paint-order:stroke fill markers"
             d="m 169.93,239.3781 6.4e-4,-1.73815 2.5885,-1.49556 c 1.42369,-0.82256 3.5293,-2.03896 4.67916,-2.70311 l 2.09065,-1.20755 0.0128,1.72835 c 0.01,1.34316 -9.5e-4,1.74092 -0.0486,1.78475 -0.0678,0.0622 -9.25849,5.36943 -9.29851,5.36943 -0.0137,0 -0.0247,-0.78217 -0.0245,-1.73816 z"
             id="path5030-3-1"
             inkscape:connector-curvature="0" />
          <path
             style="opacity:1;fill:#ffffff;fill-opacity:1;stroke:none;stroke-width:0;stroke-linecap:round;stroke-linejoin:round;stroke-miterlimit:4;stroke-dasharray:none;stroke-opacity:0.91566264;paint-order:stroke fill markers"
             d="m 169.93,242.0074 6.4e-4,-1.73815 2.5885,-1.49556 c 1.42369,-0.82256 3.5293,-2.03896 4.67916,-2.70311 l 2.09065,-1.20755 0.0128,1.72835 c 0.01,1.34316 -9.5e-4,1.74092 -0.0486,1.78475 -0.0678,0.0622 -9.25849,5.36943 -9.29851,5.36943 -0.0137,0 -0.0247,-0.78217 -0.0245,-1.73816 z"
             id="path5030-3-4"
             inkscape:connector-curvature="0" />
        </g>
        <g
           transform="matrix(0.2278349,0,0,0.2278349,86.664671,82.74837)"
           id="g8602">
          <path
             style="opacity:1;fill:#ffffff;fill-opacity:1;stroke:#000000;stroke-width:0;stroke-linecap:round;stroke-linejoin:round;stroke-miterlimit:4;stroke-dasharray:none;stroke-opacity:0.91566264;paint-order:stroke fill markers"
             d="m 144.73965,280.17738 -4.65706,-2.68673 -0.0404,-22.93662 -0.0404,-22.93662 -5.07627,-2.93083 -5.07627,-2.93083 -0.0758,22.86522 -0.0758,22.86521 -4.73533,-2.73494 -4.73532,-2.73493 v -28.3355 c 0,-22.60728 0.0383,-28.32037 0.18941,-28.26067 0.2935,0.11594 48.81555,28.1453 48.94626,28.27441 0.0636,0.0628 0.0977,2.53981 0.0758,5.50448 l -0.0398,5.3903 -9.69794,-5.60522 c -5.33387,-3.08288 -9.78318,-5.63942 -9.88736,-5.68122 -0.15103,-0.0606 -0.18941,4.54882 -0.18941,22.74555 0,12.55185 -0.0512,22.82021 -0.11365,22.8186 -0.0625,-0.002 -2.20933,-1.21196 -4.77072,-2.68966 z"
             id="path5026"
             inkscape:connector-curvature="0" />
          <path
             style="opacity:1;fill:#ffffff;fill-opacity:1;stroke:#000000;stroke-width:0;stroke-linecap:round;stroke-linejoin:round;stroke-miterlimit:4;stroke-dasharray:none;stroke-opacity:0.91566264;paint-order:stroke fill markers"
             d="m 164.62547,291.66696 -4.62167,-2.69222 -0.0384,-22.66627 -0.0384,-22.66626 2.69016,1.55456 c 1.47959,0.85501 3.62722,2.09527 4.77252,2.75613 l 2.08236,1.20156 0.001,22.61592 c 6e-4,12.43875 -0.05,22.60981 -0.11246,22.60236 -0.0625,-0.007 -2.1934,-1.22505 -4.73533,-2.70578 z"
             id="path5028"
             inkscape:connector-curvature="0" />
          <path
             style="opacity:1;fill:#ffffff;fill-opacity:1;stroke:none;stroke-width:0;stroke-linecap:round;stroke-linejoin:round;stroke-miterlimit:4;stroke-dasharray:none;stroke-opacity:0.91566264;paint-order:stroke fill markers"
             d="m 169.47143,247.50708 -6.6e-4,-1.64738 -2.63541,-1.41747 c -1.44948,-0.7796 -3.59325,-1.93248 -4.76395,-2.56195 l -2.12854,-1.14449 -0.013,1.6381 c -0.0102,1.27302 9.7e-4,1.65 0.0495,1.69155 0.069,0.059 9.42628,5.08903 9.46702,5.08903 0.014,0 0.0252,-0.74132 0.025,-1.64739 z"
             id="path5030-3-9-1"
             inkscape:connector-curvature="0" />
          <path
             style="opacity:1;fill:#ffffff;fill-opacity:1;stroke:none;stroke-width:0;stroke-linecap:round;stroke-linejoin:round;stroke-miterlimit:4;stroke-dasharray:none;stroke-opacity:0.91566264;paint-order:stroke fill markers"
             d="m 167.3205,240.28419 -6.6e-4,-1.64738 -2.63541,-1.41747 c -1.44948,-0.7796 -3.59325,-1.93248 -4.76395,-2.56195 l -2.12854,-1.14449 -0.013,1.6381 c -0.0102,1.27302 9.7e-4,1.65 0.0495,1.69155 0.069,0.059 9.42628,5.08903 9.46702,5.08903 0.014,0 0.0252,-0.74132 0.025,-1.64739 z"
             id="path5030-3-9-4"
             inkscape:connector-curvature="0" />
        </g>
      </g>
    </g>
  </g>
</svg>
